<svg version="1.1" id="Layer_1" xmlns="http://www.w3.org/2000/svg" xmlns:xlink="http://www.w3.org/1999/xlink" x="0px" y="0px"
	 width="100%" viewBox="0 0 500 500" enable-background="new 0 0 500 500" xml:space="preserve">
<path fill="#FFFFFF" opacity="1.000000" stroke="none" 
	d="
M1.000000,193.000000 
	C1.000000,128.682602 1.000000,64.865211 1.000000,1.023907 
	C167.609100,1.023907 334.218231,1.023907 500.913666,1.023907 
	C500.913666,167.567459 500.913666,334.134979 500.913666,500.851257 
	C334.333435,500.851257 167.666733,500.851257 1.000000,500.851257 
	C1.000000,398.448303 1.000000,295.974152 1.000000,193.000000 
M385.969421,66.122314 
	C385.969421,64.343475 385.969421,62.564632 385.969421,60.640980 
	C295.679077,60.640980 206.030884,60.640980 116.255569,60.640980 
	C116.116257,63.030983 116.000702,65.013306 115.139633,66.999474 
	C109.644669,67.641968 106.774902,71.858505 104.671059,75.985909 
	C98.488464,88.115181 98.245125,100.990280 102.513123,113.685257 
	C105.860214,123.641014 113.260414,128.659103 123.275169,126.668121 
	C129.658340,125.399109 136.083725,121.867775 141.333405,117.842239 
	C156.247208,106.406090 173.393936,100.537582 191.227646,96.213036 
	C199.279953,94.260406 205.018738,97.524574 207.538162,105.524475 
	C209.103577,110.495110 209.893936,115.918442 209.901321,121.140182 
	C210.036392,216.618347 210.070984,312.096893 209.880585,407.574860 
	C209.863220,416.286072 208.138245,424.990662 207.262802,433.704010 
	C205.735596,448.904877 209.053848,461.968658 227.439377,465.242493 
	C243.083633,468.028259 258.807037,468.046906 274.437500,465.263641 
	C290.802185,462.349609 297.112854,449.157257 294.338196,434.174561 
	C292.868286,426.237274 292.107941,418.053162 292.095673,409.978882 
	C291.947876,312.667847 292.000000,215.356491 292.000183,118.045212 
	C292.000183,116.712181 291.823212,115.350410 292.031433,114.050537 
	C294.338104,99.652901 298.169769,93.900291 310.421417,96.339638 
	C327.372009,99.714569 343.593658,105.558960 357.861115,116.072716 
	C363.908691,120.529182 370.736816,124.149590 377.644714,127.149338 
	C383.912872,129.871292 392.171051,126.477509 396.079742,120.843803 
	C404.473480,108.745628 404.322388,84.832306 395.241516,73.111565 
	C393.109192,70.359306 389.181244,68.998207 385.969421,66.122314 
z"/>
<path fill="#CC6EE6" opacity="1.000000" stroke="none" 
	d="
M115.885155,66.995628 
	C116.000702,65.013306 116.116257,63.030983 116.255569,60.640980 
	C206.030884,60.640980 295.679077,60.640980 385.969421,60.640980 
	C385.969421,62.564632 385.969421,64.343475 385.964661,67.017555 
	C385.998291,71.607849 386.036652,75.302902 386.016998,79.463837 
	C385.958984,89.668983 385.958984,99.408241 385.958984,109.147507 
	C385.597687,109.179131 385.236389,109.210762 384.875092,109.242386 
	C384.365784,107.782471 383.856445,106.322556 383.258575,104.504013 
	C377.792664,91.174759 368.427795,82.185966 355.349915,76.387993 
	C350.022217,74.172211 345.004150,72.164192 339.601471,70.052017 
	C322.777008,64.998726 305.882294,64.631004 288.913788,64.883080 
	C281.349518,64.995453 280.623199,65.422127 277.611816,73.071571 
	C276.549683,78.230614 275.061279,83.114189 275.055054,87.999649 
	C274.920715,193.431824 274.951599,298.864227 274.953430,404.296570 
	C274.953461,406.128571 274.800934,407.985474 275.040344,409.788177 
	C276.016632,417.139282 277.678436,424.215454 284.106384,429.416199 
	C285.207947,430.107819 286.136597,430.542847 287.084412,431.300842 
	C286.992157,432.039246 286.880676,432.454590 286.422729,432.834991 
	C285.381744,432.832550 284.687225,432.865082 283.541321,432.854462 
	C280.066162,432.828125 277.042389,432.844971 273.679810,432.634277 
	C260.972534,432.329346 248.604080,432.208313 236.235641,432.208282 
	C233.485168,432.208282 230.734711,432.634491 227.527771,432.839722 
	C223.716629,432.841919 220.361954,432.868866 216.711929,432.850464 
	C216.019669,432.827423 215.622757,432.849701 215.111267,432.558838 
	C214.883804,431.815338 214.770920,431.384979 214.901215,430.706848 
	C216.270157,429.743378 217.395889,429.027618 218.804184,428.164490 
	C225.090958,422.119629 226.854233,414.578430 226.858719,406.603394 
	C226.918625,300.055664 226.935303,193.507874 226.775757,86.960365 
	C226.768799,82.305771 224.964005,77.653870 223.964798,72.644180 
	C221.748810,69.830147 219.618759,65.304893 217.371918,65.246132 
	C201.136261,64.821602 184.754837,63.723690 168.467438,68.726883 
	C164.045212,69.888298 160.027115,70.995979 155.655487,72.160599 
	C151.000626,74.356392 146.699326,76.495270 142.085266,78.710327 
	C132.275543,83.975746 124.668381,91.026108 119.700714,101.164604 
	C118.325829,103.810478 117.212341,106.225052 116.115219,108.474792 
	C116.131577,108.309959 116.015434,107.999702 116.033127,107.531326 
	C115.996506,98.708168 115.942177,90.353401 115.941666,81.563751 
	C115.958595,79.086281 115.921700,77.043694 115.941406,74.559601 
	C115.960388,71.743942 115.922768,69.369781 115.885155,66.995628 
z"/>
<path fill="#FCFCFC" opacity="1.000000" stroke="none" 
	d="
M115.512390,66.997551 
	C115.922768,69.369781 115.960388,71.743942 115.602516,74.600075 
	C113.642738,76.713623 111.651031,78.108055 110.590698,80.019226 
	C106.718620,86.998337 105.183876,94.253853 106.862625,102.442230 
	C109.790863,116.725227 120.983704,122.219269 133.551682,114.962364 
	C148.036453,106.598679 162.608932,98.385117 177.022934,89.901825 
	C181.030594,87.543144 184.611679,84.459656 188.345215,81.740181 
	C184.846664,75.904488 179.862579,74.561737 175.020203,72.773598 
	C172.772446,71.943565 170.909149,70.072365 168.871567,68.673149 
	C184.754837,63.723690 201.136261,64.821602 217.371918,65.246132 
	C219.618759,65.304893 221.748810,69.830147 223.608917,72.680069 
	C213.258438,77.386978 211.165955,81.464935 213.882401,92.088745 
	C216.816208,103.562645 218.124176,115.128586 218.101379,127.028198 
	C217.920441,221.524353 218.009598,316.020996 217.963058,410.517456 
	C217.961441,413.809418 217.134964,417.106079 217.194916,420.391388 
	C217.243225,423.038727 218.050873,425.672241 218.521637,428.311890 
	C217.395889,429.027618 216.270157,429.743378 214.608749,430.757935 
	C213.561615,431.513550 213.050125,431.970306 212.040421,432.872009 
	C213.618042,432.872009 214.421936,432.872009 215.225830,432.872009 
	C215.622757,432.849701 216.019669,432.827423 216.716858,433.269257 
	C217.322693,435.015594 217.713181,436.284241 217.920517,437.582184 
	C219.730637,448.914825 224.451324,454.361053 235.881714,455.981567 
	C243.852814,457.111633 252.039612,456.925201 260.131409,456.954895 
	C275.570526,457.011536 284.021759,448.365051 283.992676,432.897644 
	C284.687225,432.865082 285.381744,432.832550 286.779694,432.885620 
	C288.354645,432.971222 289.226166,432.971222 290.097717,432.971222 
	C290.153473,432.723877 290.209229,432.476501 290.265015,432.229156 
	C289.198395,431.812042 288.131805,431.394928 287.065216,430.977844 
	C286.136597,430.542847 285.207947,430.107819 284.128143,428.948151 
	C283.651306,422.774292 283.044983,417.325226 283.041718,411.875824 
	C282.984161,315.508057 282.883453,219.139938 283.169586,122.773003 
	C283.200195,112.463455 285.184021,102.091072 286.989471,91.876457 
	C288.522797,83.201447 287.491699,79.711456 279.893005,74.906921 
	C279.094971,74.402351 278.542358,73.509628 277.875916,72.796982 
	C280.623199,65.422127 281.349518,64.995453 288.913788,64.883080 
	C305.882294,64.631004 322.777008,64.998726 339.556305,70.397293 
	C337.118896,72.474403 334.406311,74.225983 331.552551,75.705215 
	C324.578003,79.320396 324.156189,84.314453 330.679779,88.800591 
	C334.910522,91.709984 339.297516,94.395859 343.657593,97.112717 
	C352.658630,102.721390 361.502380,108.619446 370.766113,113.757858 
	C378.031525,117.787849 386.294067,115.942650 389.907410,109.195526 
	C392.312012,104.705521 393.990204,99.030113 393.618530,94.062973 
	C393.207794,88.573280 392.821136,81.851135 386.075012,78.997955 
	C386.036652,75.302902 385.998291,71.607849 386.019653,67.454941 
	C389.181244,68.998207 393.109192,70.359306 395.241516,73.111565 
	C404.322388,84.832306 404.473480,108.745628 396.079742,120.843803 
	C392.171051,126.477509 383.912872,129.871292 377.644714,127.149338 
	C370.736816,124.149590 363.908691,120.529182 357.861115,116.072716 
	C343.593658,105.558960 327.372009,99.714569 310.421417,96.339638 
	C298.169769,93.900291 294.338104,99.652901 292.031433,114.050537 
	C291.823212,115.350410 292.000183,116.712181 292.000183,118.045212 
	C292.000000,215.356491 291.947876,312.667847 292.095673,409.978882 
	C292.107941,418.053162 292.868286,426.237274 294.338196,434.174561 
	C297.112854,449.157257 290.802185,462.349609 274.437500,465.263641 
	C258.807037,468.046906 243.083633,468.028259 227.439377,465.242493 
	C209.053848,461.968658 205.735596,448.904877 207.262802,433.704010 
	C208.138245,424.990662 209.863220,416.286072 209.880585,407.574860 
	C210.070984,312.096893 210.036392,216.618347 209.901321,121.140182 
	C209.893936,115.918442 209.103577,110.495110 207.538162,105.524475 
	C205.018738,97.524574 199.279953,94.260406 191.227646,96.213036 
	C173.393936,100.537582 156.247208,106.406090 141.333405,117.842239 
	C136.083725,121.867775 129.658340,125.399109 123.275169,126.668121 
	C113.260414,128.659103 105.860214,123.641014 102.513123,113.685257 
	C98.245125,100.990280 98.488464,88.115181 104.671059,75.985909 
	C106.774902,71.858505 109.644669,67.641968 115.512390,66.997551 
z"/>
<path fill="#F7F5F8" opacity="1.000000" stroke="none" 
	d="
M218.804184,428.164490 
	C218.050873,425.672241 217.243225,423.038727 217.194916,420.391388 
	C217.134964,417.106079 217.961441,413.809418 217.963058,410.517456 
	C218.009598,316.020996 217.920441,221.524353 218.101379,127.028198 
	C218.124176,115.128586 216.816208,103.562645 213.882401,92.088745 
	C211.165955,81.464935 213.258438,77.386978 223.640808,73.036591 
	C224.964005,77.653870 226.768799,82.305771 226.775757,86.960365 
	C226.935303,193.507874 226.918625,300.055664 226.858719,406.603394 
	C226.854233,414.578430 225.090958,422.119629 218.804184,428.164490 
z"/>
<path fill="#F7F7F7" opacity="1.000000" stroke="none" 
	d="
M277.611816,73.071579 
	C278.542358,73.509628 279.094971,74.402351 279.893005,74.906921 
	C287.491699,79.711456 288.522797,83.201447 286.989471,91.876457 
	C285.184021,102.091072 283.200195,112.463455 283.169586,122.773003 
	C282.883453,219.139938 282.984161,315.508057 283.041718,411.875824 
	C283.044983,417.325226 283.651306,422.774292 283.955200,428.691559 
	C277.678436,424.215454 276.016632,417.139282 275.040344,409.788177 
	C274.800934,407.985474 274.953461,406.128571 274.953430,404.296570 
	C274.951599,298.864227 274.920715,193.431824 275.055054,87.999649 
	C275.061279,83.114189 276.549683,78.230614 277.611816,73.071579 
z"/>
<path fill="#F7F7F7" opacity="1.000000" stroke="none" 
	d="
M386.016998,79.463837 
	C392.821136,81.851135 393.207794,88.573280 393.618530,94.062973 
	C393.990204,99.030113 392.312012,104.705521 389.907410,109.195526 
	C386.294067,115.942650 378.031525,117.787849 370.766113,113.757858 
	C361.502380,108.619446 352.658630,102.721390 343.657593,97.112717 
	C339.297516,94.395859 334.910522,91.709984 330.679779,88.800591 
	C324.156189,84.314453 324.578003,79.320396 331.552551,75.705215 
	C334.406311,74.225983 337.118896,72.474403 339.940887,70.501450 
	C345.004150,72.164192 350.022217,74.172211 354.976562,76.573929 
	C354.149536,77.596123 353.395905,78.236732 352.621490,78.851196 
	C346.901855,83.389572 345.837036,87.304649 351.313934,92.094284 
	C360.284149,99.938889 368.782898,110.475609 383.347107,104.862640 
	C383.856445,106.322556 384.365784,107.782471 384.875092,109.242386 
	C385.236389,109.210762 385.597687,109.179131 385.958984,109.147507 
	C385.958984,99.408241 385.958984,89.668983 386.016998,79.463837 
z"/>
<path fill="#FBFBFB" opacity="1.000000" stroke="none" 
	d="
M168.467438,68.726883 
	C170.909149,70.072365 172.772446,71.943565 175.020203,72.773598 
	C179.862579,74.561737 184.846664,75.904488 188.345215,81.740181 
	C184.611679,84.459656 181.030594,87.543144 177.022934,89.901825 
	C162.608932,98.385117 148.036453,106.598679 133.551682,114.962364 
	C120.983704,122.219269 109.790863,116.725227 106.862625,102.442230 
	C105.183876,94.253853 106.718620,86.998337 110.590698,80.019226 
	C111.651031,78.108055 113.642738,76.713623 115.545914,75.041580 
	C115.921700,77.043694 115.958595,79.086281 115.594437,81.609894 
	C110.332550,85.851799 109.547569,91.395348 110.246841,96.674286 
	C110.788452,100.763031 110.029053,106.350937 116.015434,107.999702 
	C116.015434,107.999702 116.131577,108.309959 116.132309,108.887817 
	C120.573563,113.030518 126.217628,113.509262 130.404831,110.987679 
	C141.976410,104.019150 153.187103,96.361931 163.992569,88.247391 
	C169.636200,84.009216 168.543259,80.164070 162.179916,76.545998 
	C159.989227,75.300407 158.058502,73.597603 156.009018,72.103668 
	C160.027115,70.995979 164.045212,69.888298 168.467438,68.726883 
z"/>
<path fill="#F7F7F7" opacity="1.000000" stroke="none" 
	d="
M283.541321,432.854462 
	C284.021759,448.365051 275.570526,457.011536 260.131409,456.954895 
	C252.039612,456.925201 243.852814,457.111633 235.881714,455.981567 
	C224.451324,454.361053 219.730637,448.914825 217.920517,437.582184 
	C217.713181,436.284241 217.322693,435.015594 217.012192,433.314575 
	C220.361954,432.868866 223.716629,432.841919 227.533356,433.243073 
	C229.010223,441.061554 233.433228,445.918060 240.647949,446.948212 
	C245.214630,447.600281 249.899048,448.194885 254.471024,447.897766 
	C267.717621,447.036835 271.850769,443.178955 274.018616,432.861816 
	C277.042389,432.844971 280.066162,432.828125 283.541321,432.854462 
z"/>
<path fill="#F7F7F7" opacity="1.000000" stroke="none" 
	d="
M155.655487,72.160599 
	C158.058502,73.597603 159.989227,75.300407 162.179916,76.545998 
	C168.543259,80.164070 169.636200,84.009216 163.992569,88.247391 
	C153.187103,96.361931 141.976410,104.019150 130.404831,110.987679 
	C126.217628,113.509262 120.573563,113.030518 116.115952,109.052643 
	C117.212341,106.225052 118.325829,103.810478 119.914085,101.460281 
	C125.194290,104.862358 130.090591,104.115562 134.815247,101.528618 
	C137.545090,100.033913 140.143524,98.201576 142.534485,96.202362 
	C153.698853,86.867264 151.147568,83.349983 142.398010,78.634140 
	C146.699326,76.495270 151.000626,74.356392 155.655487,72.160599 
z"/>
<path fill="#EEEAF0" opacity="1.000000" stroke="none" 
	d="
M273.679810,432.634277 
	C271.850769,443.178955 267.717621,447.036835 254.471024,447.897766 
	C249.899048,448.194885 245.214630,447.600281 240.647949,446.948212 
	C233.433228,445.918060 229.010223,441.061554 227.989807,433.267792 
	C230.734711,432.634491 233.485168,432.208282 236.235641,432.208282 
	C248.604080,432.208313 260.972534,432.329346 273.679810,432.634277 
z"/>
<path fill="#F4F3F5" opacity="1.000000" stroke="none" 
	d="
M383.258575,104.504013 
	C368.782898,110.475609 360.284149,99.938889 351.313934,92.094284 
	C345.837036,87.304649 346.901855,83.389572 352.621490,78.851196 
	C353.395905,78.236732 354.149536,77.596123 355.286163,76.781677 
	C368.427795,82.185966 377.792664,91.174759 383.258575,104.504013 
z"/>
<path fill="#F4F3F5" opacity="1.000000" stroke="none" 
	d="
M142.085266,78.710327 
	C151.147568,83.349983 153.698853,86.867264 142.534485,96.202362 
	C140.143524,98.201576 137.545090,100.033913 134.815247,101.528618 
	C130.090591,104.115562 125.194290,104.862358 120.175484,101.228989 
	C124.668381,91.026108 132.275543,83.975746 142.085266,78.710327 
z"/>
<path fill="#F7F7F7" opacity="1.000000" stroke="none" 
	d="
M116.033127,107.531326 
	C110.029053,106.350937 110.788452,100.763031 110.246841,96.674286 
	C109.547569,91.395348 110.332550,85.851799 115.540619,82.044769 
	C115.942177,90.353401 115.996506,98.708168 116.033127,107.531326 
z"/>
<path fill="#EEEAF0" opacity="1.000000" stroke="none" 
	d="
M287.084412,431.300842 
	C288.131805,431.394928 289.198395,431.812042 290.265015,432.229156 
	C290.209229,432.476501 290.153473,432.723877 290.097717,432.971222 
	C289.226166,432.971222 288.354645,432.971222 287.126160,432.920593 
	C286.880676,432.454590 286.992157,432.039246 287.084412,431.300842 
z"/>
<path fill="#EEEAF0" opacity="1.000000" stroke="none" 
	d="
M215.111267,432.558838 
	C214.421936,432.872009 213.618042,432.872009 212.040421,432.872009 
	C213.050125,431.970306 213.561615,431.513550 214.365570,431.005676 
	C214.770920,431.384979 214.883804,431.815338 215.111267,432.558838 
z"/>
</svg>